screens;
 
http://baypic.net/img-519779fe0ec9f.html
 
http://baypic.net/img-51977a1182ced.html
 
http://baypic.net/img-51977a239906f.html
 
http://baypic.net/img-51977a388e519.html
 
http://baypic.net/img-51977a478706c.html

Starring Bridgette B., Chris Cock, Jacky Joy, Jeremy Conway, Jessa Rhodes

Categories Big Breast, Black, Blonde, Booty

Directed by : MeanBitch Productions


Format : MPEG-4
Format profile : Base Media
Codec ID : isom
File size : 2.22 GiB
Duration : 45mn 39s
Overall bit rate mode : Variable
Overall bit rate : 6 971 Kbps
Writing application : Lavf52.93.0

Video
ID : 1
Format : AVC
Format/Info : Advanced Video Codec
Format profile : High@L4.0
Format settings, CABAC : Yes
Format settings, ReFrames : 4 frames
Codec ID : avc1
Codec ID/Info : Advanced Video Coding
Duration : 45mn 38s
Bit rate : 6 800 Kbps
Width : 1 920 pixels
Height : 1 080 pixels
Display aspect ratio : 16:9
Frame rate mode : Constant
Frame rate : 29.970 fps
Color space : YUV
Chroma subsampling : 4:2:0
Bit depth : 8 bits
Scan type : Progressive
Bits/(Pixel*Frame) : 0.109
Stream size : 2.17 GiB (98%)
Writing library : x264 core 107

Audio
ID : 2
Format : AAC
Format/Info : Advanced Audio Codec
Format profile : LC
Codec ID : 40
Duration : 45mn 39s
Bit rate mode : Variable
Bit rate : 151 Kbps
Channel(s) : 2 channels
Channel positions : Front: L R
Sampling rate : 44.1 KHz
Compression mode : Lossy
Delay relative to video : 67ms
Stream size : 49.1 MiB (2%)